<svg width="960" height="1080" viewBox="0 0 960 1080" fill="none" xmlns="http://www.w3.org/2000/svg">
<g clip-path="url(#clip0_17_31)">
<rect width="960" height="1080" fill="white"/>
<rect width="960" height="540" fill="#EEF2F6"/>
<path d="M295.4 228.6H315.9V252.8L295.4 275.7V228.6ZM356.1 208L336.5 229.9V208H275V310.6L295.5 331.1V306.1L316 283.2V331.1H336.5V260.3L357 237.4V331.1L377.5 310.6V208H356H356.1Z" fill="black"/>
<path d="M474.58 298.89H432.28L422.83 324.45H401.5L443.71 214.65H463.15L505.45 324.45H483.94L474.49 298.89H474.58ZM468.28 281.34L453.52 241.2L438.76 281.34H468.28Z" fill="black"/>
<path d="M521.92 214.65H542.8V324.45H521.92V214.65Z" fill="black"/>
<path d="M570.52 214.65H594.55L627.76 295.74L660.97 214.65H684.82V324.45H665.38V251.64L635.59 324.45H619.93L589.96 251.64V324.45H570.52V214.65Z" fill="black"/>
<path d="M295.4 768.6H315.9V792.8L295.4 815.7V768.6ZM356.1 748L336.5 769.9V748H275V850.6L295.5 871.1V846.1L316 823.2V871.1H336.5V800.3L357 777.4V871.1L377.5 850.6V748H356H356.1Z" fill="black"/>
<path d="M474.58 838.89H432.28L422.83 864.45H401.5L443.71 754.65H463.15L505.45 864.45H483.94L474.49 838.89H474.58ZM468.28 821.34L453.52 781.2L438.76 821.34H468.28Z" fill="black"/>
<path d="M521.92 754.65H542.8V864.45H521.92V754.65Z" fill="black"/>
<path d="M570.52 754.65H594.55L627.76 835.74L660.97 754.65H684.82V864.45H665.38V791.64L635.59 864.45H619.93L589.96 791.64V864.45H570.52V754.65Z" fill="black"/>
</g>
<defs>
<clipPath id="clip0_17_31">
<rect width="960" height="1080" fill="white"/>
</clipPath>
</defs>
</svg>
